<mxfile host="app.diagrams.net" modified="2022-01-02T23:13:13.678Z" agent="5.0 (Windows NT 10.0; Win64; x64) AppleWebKit/537.36 (KHTML, like Gecko) Chrome/96.0.4664.110 Safari/537.36" etag="2WO3grJBAnwmCysWw_6I" version="16.1.2" type="github">
  <diagram name="Page-1" id="c37626ed-c26b-45fb-9056-f9ebc6bb27b6">
    <mxGraphModel dx="1422" dy="794" grid="1" gridSize="10" guides="1" tooltips="1" connect="1" arrows="1" fold="1" page="1" pageScale="1" pageWidth="1100" pageHeight="850" background="none" math="0" shadow="0">
      <root>
        <mxCell id="0" />
        <mxCell id="1" parent="0" />
        <mxCell id="1c7a67bf8fd3230f-15" value="Internet" style="ellipse;shape=cloud;whiteSpace=wrap;html=1;rounded=0;shadow=0;comic=0;strokeWidth=1;fontFamily=Verdana;fontSize=12;" parent="1" vertex="1">
          <mxGeometry x="30" y="758.5" width="120" height="80" as="geometry" />
        </mxCell>
        <mxCell id="1c7a67bf8fd3230f-52" style="edgeStyle=none;html=1;labelBackgroundColor=none;startFill=0;endArrow=none;endFill=0;strokeWidth=2;fontFamily=Verdana;fontSize=12;" parent="1" source="1c7a67bf8fd3230f-48" target="1c7a67bf8fd3230f-15" edge="1">
          <mxGeometry relative="1" as="geometry" />
        </mxCell>
        <mxCell id="kIxCgRVE3hWU1zK3YjNe-6" style="edgeStyle=orthogonalEdgeStyle;rounded=0;orthogonalLoop=1;jettySize=auto;html=1;fontSize=14;" edge="1" parent="1" source="1c7a67bf8fd3230f-48" target="kIxCgRVE3hWU1zK3YjNe-4">
          <mxGeometry relative="1" as="geometry" />
        </mxCell>
        <mxCell id="1c7a67bf8fd3230f-48" value="&lt;p&gt;&lt;br&gt;&lt;/p&gt;&lt;p&gt;&lt;br&gt;&lt;/p&gt;" style="shape=mxgraph.cisco.routers.router;html=1;dashed=0;fillColor=#036897;strokeColor=#ffffff;strokeWidth=2;verticalLabelPosition=bottom;verticalAlign=top;rounded=0;shadow=0;comic=0;fontFamily=Verdana;fontSize=12;" parent="1" vertex="1">
          <mxGeometry x="238" y="772" width="78" height="53" as="geometry" />
        </mxCell>
        <mxCell id="kIxCgRVE3hWU1zK3YjNe-3" value="" style="edgeStyle=orthogonalEdgeStyle;rounded=0;orthogonalLoop=1;jettySize=auto;html=1;" edge="1" parent="1" source="kIxCgRVE3hWU1zK3YjNe-2" target="1c7a67bf8fd3230f-48">
          <mxGeometry relative="1" as="geometry" />
        </mxCell>
        <mxCell id="kIxCgRVE3hWU1zK3YjNe-2" value="&lt;h1 class=&quot;Heading Heading_level_1 ProductHeader__title&quot; style=&quot;margin: 0px 0px 10px ; padding: 0px ; border: 0px ; outline: 0px ; font-weight: 400 ; font-family: &amp;#34;ptrootuiwebregular&amp;#34; ; line-height: 40px ; word-break: break-word ; color: rgb(21 , 21 , 40) ; background-color: rgb(255 , 255 , 255)&quot;&gt;&lt;font style=&quot;font-size: 14px&quot;&gt;RB2011&lt;/font&gt;&lt;/h1&gt;" style="text;html=1;align=center;verticalAlign=middle;resizable=0;points=[];autosize=1;strokeColor=none;fillColor=none;" vertex="1" parent="1">
          <mxGeometry x="164" y="732" width="60" height="60" as="geometry" />
        </mxCell>
        <mxCell id="kIxCgRVE3hWU1zK3YjNe-4" value="" style="sketch=0;pointerEvents=1;shadow=0;dashed=0;html=1;strokeColor=none;fillColor=#434445;aspect=fixed;labelPosition=center;verticalLabelPosition=bottom;verticalAlign=top;align=center;outlineConnect=0;shape=mxgraph.vvd.vpn;fontSize=14;" vertex="1" parent="1">
          <mxGeometry x="252" y="662" width="50" height="50" as="geometry" />
        </mxCell>
        <mxCell id="kIxCgRVE3hWU1zK3YjNe-7" style="edgeStyle=orthogonalEdgeStyle;rounded=0;orthogonalLoop=1;jettySize=auto;html=1;fontSize=14;" edge="1" parent="1" target="kIxCgRVE3hWU1zK3YjNe-4">
          <mxGeometry relative="1" as="geometry">
            <mxPoint x="277" y="615" as="sourcePoint" />
          </mxGeometry>
        </mxCell>
        <mxCell id="kIxCgRVE3hWU1zK3YjNe-9" style="edgeStyle=orthogonalEdgeStyle;rounded=0;orthogonalLoop=1;jettySize=auto;html=1;fontSize=14;entryX=0.423;entryY=0.453;entryDx=0;entryDy=0;entryPerimeter=0;" edge="1" parent="1" source="kIxCgRVE3hWU1zK3YjNe-8">
          <mxGeometry relative="1" as="geometry">
            <mxPoint x="270.99400000000014" y="586.009" as="targetPoint" />
          </mxGeometry>
        </mxCell>
        <mxCell id="kIxCgRVE3hWU1zK3YjNe-8" value="&lt;h1 class=&quot;Heading Heading_level_1 ProductHeader__title&quot; style=&quot;margin: 0px 0px 10px ; padding: 0px ; border: 0px ; outline: 0px ; font-weight: 400 ; font-family: &amp;#34;ptrootuiwebregular&amp;#34; ; line-height: 40px ; word-break: break-word ; color: rgb(21 , 21 , 40) ; background-color: rgb(255 , 255 , 255)&quot;&gt;&lt;font style=&quot;font-size: 14px&quot;&gt;sxt lte 110.1&lt;/font&gt;&lt;/h1&gt;" style="text;html=1;align=center;verticalAlign=middle;resizable=0;points=[];autosize=1;strokeColor=none;fillColor=none;" vertex="1" parent="1">
          <mxGeometry x="169" y="522" width="80" height="60" as="geometry" />
        </mxCell>
        <mxCell id="kIxCgRVE3hWU1zK3YjNe-11" style="edgeStyle=orthogonalEdgeStyle;rounded=0;orthogonalLoop=1;jettySize=auto;html=1;fontSize=14;" edge="1" parent="1" source="kIxCgRVE3hWU1zK3YjNe-10">
          <mxGeometry relative="1" as="geometry">
            <mxPoint x="254" y="582" as="targetPoint" />
          </mxGeometry>
        </mxCell>
        <mxCell id="kIxCgRVE3hWU1zK3YjNe-10" value="Internet" style="ellipse;shape=cloud;whiteSpace=wrap;html=1;rounded=0;shadow=0;comic=0;strokeWidth=1;fontFamily=Verdana;fontSize=12;" vertex="1" parent="1">
          <mxGeometry x="30" y="542" width="120" height="80" as="geometry" />
        </mxCell>
        <mxCell id="kIxCgRVE3hWU1zK3YjNe-14" style="edgeStyle=orthogonalEdgeStyle;rounded=0;orthogonalLoop=1;jettySize=auto;html=1;fontSize=14;" edge="1" parent="1" source="kIxCgRVE3hWU1zK3YjNe-13" target="kIxCgRVE3hWU1zK3YjNe-21">
          <mxGeometry relative="1" as="geometry">
            <mxPoint x="302.038" y="583.9949999999999" as="targetPoint" />
          </mxGeometry>
        </mxCell>
        <mxCell id="kIxCgRVE3hWU1zK3YjNe-13" value="" style="shape=mxgraph.cisco.wireless.wireless_transport;sketch=0;html=1;pointerEvents=1;dashed=0;fillColor=#036897;strokeColor=#ffffff;strokeWidth=2;verticalLabelPosition=bottom;verticalAlign=top;align=center;outlineConnect=0;fontSize=14;" vertex="1" parent="1">
          <mxGeometry x="436" y="468" width="77" height="54" as="geometry" />
        </mxCell>
        <mxCell id="kIxCgRVE3hWU1zK3YjNe-15" value="" style="shape=mxgraph.cisco.wireless.antenna;sketch=0;html=1;pointerEvents=1;dashed=0;fillColor=#036897;strokeColor=#ffffff;strokeWidth=2;verticalLabelPosition=bottom;verticalAlign=top;align=center;outlineConnect=0;fontSize=14;" vertex="1" parent="1">
          <mxGeometry x="441.5" y="420" width="66" height="54" as="geometry" />
        </mxCell>
        <mxCell id="kIxCgRVE3hWU1zK3YjNe-16" value="&lt;h1 class=&quot;Heading Heading_level_1 ProductHeader__title&quot; style=&quot;margin: 0px 0px 10px ; padding: 0px ; border: 0px ; outline: 0px ; font-weight: 400 ; line-height: 40px ; word-break: break-word ; background-color: rgb(255 , 255 , 255)&quot;&gt;&lt;sub&gt;&lt;font style=&quot;font-size: 11px&quot;&gt;BaseBox 110.2&lt;/font&gt;&lt;/sub&gt;&lt;br&gt;&lt;/h1&gt;" style="text;html=1;align=center;verticalAlign=middle;resizable=0;points=[];autosize=1;strokeColor=none;fillColor=none;" vertex="1" parent="1">
          <mxGeometry x="316" y="416.5" width="90" height="70" as="geometry" />
        </mxCell>
        <mxCell id="kIxCgRVE3hWU1zK3YjNe-17" style="edgeStyle=orthogonalEdgeStyle;rounded=0;orthogonalLoop=1;jettySize=auto;html=1;fontFamily=Helvetica;fontSize=11;fontColor=#000000;" edge="1" parent="1" source="kIxCgRVE3hWU1zK3YjNe-16" target="kIxCgRVE3hWU1zK3YjNe-13">
          <mxGeometry relative="1" as="geometry" />
        </mxCell>
        <mxCell id="kIxCgRVE3hWU1zK3YjNe-20" style="edgeStyle=orthogonalEdgeStyle;rounded=0;orthogonalLoop=1;jettySize=auto;html=1;fontFamily=Helvetica;fontSize=11;fontColor=#000000;" edge="1" parent="1" source="kIxCgRVE3hWU1zK3YjNe-19" target="kIxCgRVE3hWU1zK3YjNe-15">
          <mxGeometry relative="1" as="geometry">
            <mxPoint x="892" y="308" as="sourcePoint" />
          </mxGeometry>
        </mxCell>
        <mxCell id="kIxCgRVE3hWU1zK3YjNe-19" value="AX-2409R MIMO 2x2" style="text;whiteSpace=wrap;html=1;fontSize=11;fontFamily=Helvetica;fontColor=#000000;" vertex="1" parent="1">
          <mxGeometry x="307" y="389.75" width="130" height="30" as="geometry" />
        </mxCell>
        <mxCell id="kIxCgRVE3hWU1zK3YjNe-21" value="" style="shape=mxgraph.cisco.switches.layer_2_remote_switch;sketch=0;html=1;pointerEvents=1;dashed=0;fillColor=#036897;strokeColor=#ffffff;strokeWidth=2;verticalLabelPosition=bottom;verticalAlign=top;align=center;outlineConnect=0;fontFamily=Helvetica;fontSize=11;fontColor=#000000;" vertex="1" parent="1">
          <mxGeometry x="334" y="612" width="71" height="30" as="geometry" />
        </mxCell>
        <mxCell id="kIxCgRVE3hWU1zK3YjNe-24" style="edgeStyle=orthogonalEdgeStyle;rounded=0;orthogonalLoop=1;jettySize=auto;html=1;fontFamily=Helvetica;fontSize=11;fontColor=#000000;" edge="1" parent="1" source="kIxCgRVE3hWU1zK3YjNe-23" target="kIxCgRVE3hWU1zK3YjNe-21">
          <mxGeometry relative="1" as="geometry">
            <Array as="points">
              <mxPoint x="327" y="591" />
            </Array>
          </mxGeometry>
        </mxCell>
        <mxCell id="kIxCgRVE3hWU1zK3YjNe-23" value="" style="shape=mxgraph.cisco.wireless.ground_terminal;sketch=0;html=1;pointerEvents=1;dashed=0;fillColor=#036897;strokeColor=#ffffff;strokeWidth=2;verticalLabelPosition=bottom;verticalAlign=top;align=center;outlineConnect=0;fontFamily=Helvetica;fontSize=11;fontColor=#000000;" vertex="1" parent="1">
          <mxGeometry x="247" y="560" width="60" height="62" as="geometry" />
        </mxCell>
        <mxCell id="kIxCgRVE3hWU1zK3YjNe-25" value="" style="shape=mxgraph.cisco.computers_and_peripherals.video_camera;sketch=0;html=1;pointerEvents=1;dashed=0;fillColor=#036897;strokeColor=#ffffff;strokeWidth=2;verticalLabelPosition=bottom;verticalAlign=top;align=center;outlineConnect=0;fontFamily=Helvetica;fontSize=11;fontColor=#000000;direction=north;" vertex="1" parent="1">
          <mxGeometry x="863.5" y="608.5" width="46.5" height="48.5" as="geometry" />
        </mxCell>
        <mxCell id="kIxCgRVE3hWU1zK3YjNe-27" value="&lt;font style=&quot;font-size: 18px&quot;&gt;Дом&lt;/font&gt;" style="text;html=1;align=center;verticalAlign=middle;resizable=0;points=[];autosize=1;strokeColor=none;fillColor=none;fontSize=11;fontFamily=Helvetica;fontColor=#000000;" vertex="1" parent="1">
          <mxGeometry x="65" y="731" width="50" height="20" as="geometry" />
        </mxCell>
        <mxCell id="kIxCgRVE3hWU1zK3YjNe-28" value="Коломна" style="text;html=1;align=center;verticalAlign=middle;resizable=0;points=[];autosize=1;strokeColor=none;fillColor=none;fontSize=18;fontFamily=Helvetica;fontColor=#000000;" vertex="1" parent="1">
          <mxGeometry x="39" y="507" width="90" height="30" as="geometry" />
        </mxCell>
        <mxCell id="kIxCgRVE3hWU1zK3YjNe-29" value="Ip cam 110.19" style="text;html=1;align=center;verticalAlign=middle;resizable=0;points=[];autosize=1;strokeColor=none;fillColor=none;fontSize=18;fontFamily=Helvetica;fontColor=#000000;" vertex="1" parent="1">
          <mxGeometry x="916.5" y="622" width="130" height="30" as="geometry" />
        </mxCell>
        <mxCell id="kIxCgRVE3hWU1zK3YjNe-41" style="edgeStyle=orthogonalEdgeStyle;rounded=0;orthogonalLoop=1;jettySize=auto;html=1;fontFamily=Helvetica;fontSize=18;fontColor=#000000;" edge="1" parent="1" source="kIxCgRVE3hWU1zK3YjNe-31" target="kIxCgRVE3hWU1zK3YjNe-36">
          <mxGeometry relative="1" as="geometry" />
        </mxCell>
        <mxCell id="kIxCgRVE3hWU1zK3YjNe-31" value="" style="shape=mxgraph.cisco.wireless.satellite_dish;sketch=0;html=1;pointerEvents=1;dashed=0;fillColor=#036897;strokeColor=#ffffff;strokeWidth=2;verticalLabelPosition=bottom;verticalAlign=top;align=center;outlineConnect=0;fontFamily=Helvetica;fontSize=18;fontColor=#000000;rotation=-90;" vertex="1" parent="1">
          <mxGeometry x="670" y="224.5" width="60" height="44" as="geometry" />
        </mxCell>
        <mxCell id="kIxCgRVE3hWU1zK3YjNe-42" style="edgeStyle=orthogonalEdgeStyle;rounded=0;orthogonalLoop=1;jettySize=auto;html=1;fontFamily=Helvetica;fontSize=18;fontColor=#000000;" edge="1" parent="1" source="kIxCgRVE3hWU1zK3YjNe-32" target="kIxCgRVE3hWU1zK3YjNe-37">
          <mxGeometry relative="1" as="geometry" />
        </mxCell>
        <mxCell id="kIxCgRVE3hWU1zK3YjNe-32" value="" style="shape=mxgraph.cisco.wireless.satellite_dish;sketch=0;html=1;pointerEvents=1;dashed=0;fillColor=#036897;strokeColor=#ffffff;strokeWidth=2;verticalLabelPosition=bottom;verticalAlign=top;align=center;outlineConnect=0;fontFamily=Helvetica;fontSize=18;fontColor=#000000;rotation=-90;" vertex="1" parent="1">
          <mxGeometry x="670" y="282.5" width="60" height="44" as="geometry" />
        </mxCell>
        <mxCell id="kIxCgRVE3hWU1zK3YjNe-43" style="edgeStyle=orthogonalEdgeStyle;rounded=0;orthogonalLoop=1;jettySize=auto;html=1;fontFamily=Helvetica;fontSize=18;fontColor=#000000;" edge="1" parent="1" source="kIxCgRVE3hWU1zK3YjNe-33" target="kIxCgRVE3hWU1zK3YjNe-38">
          <mxGeometry relative="1" as="geometry" />
        </mxCell>
        <mxCell id="kIxCgRVE3hWU1zK3YjNe-33" value="" style="shape=mxgraph.cisco.wireless.satellite_dish;sketch=0;html=1;pointerEvents=1;dashed=0;fillColor=#036897;strokeColor=#ffffff;strokeWidth=2;verticalLabelPosition=bottom;verticalAlign=top;align=center;outlineConnect=0;fontFamily=Helvetica;fontSize=18;fontColor=#000000;rotation=-90;" vertex="1" parent="1">
          <mxGeometry x="670" y="372.5" width="60" height="44" as="geometry" />
        </mxCell>
        <mxCell id="kIxCgRVE3hWU1zK3YjNe-44" style="edgeStyle=orthogonalEdgeStyle;rounded=0;orthogonalLoop=1;jettySize=auto;html=1;fontFamily=Helvetica;fontSize=18;fontColor=#000000;" edge="1" parent="1" source="kIxCgRVE3hWU1zK3YjNe-34" target="kIxCgRVE3hWU1zK3YjNe-39">
          <mxGeometry relative="1" as="geometry" />
        </mxCell>
        <mxCell id="kIxCgRVE3hWU1zK3YjNe-34" value="" style="shape=mxgraph.cisco.wireless.satellite_dish;sketch=0;html=1;pointerEvents=1;dashed=0;fillColor=#036897;strokeColor=#ffffff;strokeWidth=2;verticalLabelPosition=bottom;verticalAlign=top;align=center;outlineConnect=0;fontFamily=Helvetica;fontSize=18;fontColor=#000000;rotation=-91;" vertex="1" parent="1">
          <mxGeometry x="670" y="431.25" width="60" height="44" as="geometry" />
        </mxCell>
        <mxCell id="kIxCgRVE3hWU1zK3YjNe-73" style="edgeStyle=orthogonalEdgeStyle;rounded=0;orthogonalLoop=1;jettySize=auto;html=1;entryX=0.5;entryY=0.01;entryDx=0;entryDy=0;entryPerimeter=0;fontFamily=Helvetica;fontSize=18;fontColor=#000000;" edge="1" parent="1" source="kIxCgRVE3hWU1zK3YjNe-36" target="kIxCgRVE3hWU1zK3YjNe-56">
          <mxGeometry relative="1" as="geometry" />
        </mxCell>
        <mxCell id="kIxCgRVE3hWU1zK3YjNe-74" style="edgeStyle=orthogonalEdgeStyle;rounded=0;orthogonalLoop=1;jettySize=auto;html=1;fontFamily=Helvetica;fontSize=18;fontColor=#000000;entryX=0.5;entryY=0.01;entryDx=0;entryDy=0;entryPerimeter=0;" edge="1" parent="1" source="kIxCgRVE3hWU1zK3YjNe-36" target="kIxCgRVE3hWU1zK3YjNe-54">
          <mxGeometry relative="1" as="geometry">
            <mxPoint x="800" y="154.5" as="targetPoint" />
            <Array as="points">
              <mxPoint x="790" y="158.5" />
            </Array>
          </mxGeometry>
        </mxCell>
        <mxCell id="kIxCgRVE3hWU1zK3YjNe-36" value="" style="shape=mxgraph.cisco.switches.layer_2_remote_switch;sketch=0;html=1;pointerEvents=1;dashed=0;fillColor=#036897;strokeColor=#ffffff;strokeWidth=2;verticalLabelPosition=bottom;verticalAlign=top;align=center;outlineConnect=0;fontFamily=Helvetica;fontSize=11;fontColor=#000000;" vertex="1" parent="1">
          <mxGeometry x="760" y="231.5" width="71" height="30" as="geometry" />
        </mxCell>
        <mxCell id="kIxCgRVE3hWU1zK3YjNe-37" value="" style="shape=mxgraph.cisco.switches.layer_2_remote_switch;sketch=0;html=1;pointerEvents=1;dashed=0;fillColor=#036897;strokeColor=#ffffff;strokeWidth=2;verticalLabelPosition=bottom;verticalAlign=top;align=center;outlineConnect=0;fontFamily=Helvetica;fontSize=11;fontColor=#000000;" vertex="1" parent="1">
          <mxGeometry x="760" y="289.5" width="71" height="30" as="geometry" />
        </mxCell>
        <mxCell id="kIxCgRVE3hWU1zK3YjNe-38" value="" style="shape=mxgraph.cisco.switches.layer_2_remote_switch;sketch=0;html=1;pointerEvents=1;dashed=0;fillColor=#036897;strokeColor=#ffffff;strokeWidth=2;verticalLabelPosition=bottom;verticalAlign=top;align=center;outlineConnect=0;fontFamily=Helvetica;fontSize=11;fontColor=#000000;" vertex="1" parent="1">
          <mxGeometry x="760" y="379.5" width="71" height="30" as="geometry" />
        </mxCell>
        <mxCell id="kIxCgRVE3hWU1zK3YjNe-39" value="" style="shape=mxgraph.cisco.switches.layer_2_remote_switch;sketch=0;html=1;pointerEvents=1;dashed=0;fillColor=#036897;strokeColor=#ffffff;strokeWidth=2;verticalLabelPosition=bottom;verticalAlign=top;align=center;outlineConnect=0;fontFamily=Helvetica;fontSize=11;fontColor=#000000;" vertex="1" parent="1">
          <mxGeometry x="770" y="440.25" width="71" height="30" as="geometry" />
        </mxCell>
        <mxCell id="kIxCgRVE3hWU1zK3YjNe-46" value="LHG 110.3" style="text;whiteSpace=wrap;html=1;fontSize=18;fontFamily=Helvetica;fontColor=#000000;" vertex="1" parent="1">
          <mxGeometry x="580" y="231.5" width="110" height="40" as="geometry" />
        </mxCell>
        <mxCell id="kIxCgRVE3hWU1zK3YjNe-49" value="LHG 110.4" style="text;whiteSpace=wrap;html=1;fontSize=18;fontFamily=Helvetica;fontColor=#000000;" vertex="1" parent="1">
          <mxGeometry x="580" y="286.5" width="100" height="40" as="geometry" />
        </mxCell>
        <mxCell id="kIxCgRVE3hWU1zK3YjNe-79" style="edgeStyle=orthogonalEdgeStyle;rounded=0;orthogonalLoop=1;jettySize=auto;html=1;exitX=1;exitY=0.5;exitDx=0;exitDy=0;entryX=0;entryY=0.37;entryDx=0;entryDy=0;entryPerimeter=0;fontFamily=Helvetica;fontSize=18;fontColor=#000000;" edge="1" parent="1" source="kIxCgRVE3hWU1zK3YjNe-51" target="kIxCgRVE3hWU1zK3YjNe-33">
          <mxGeometry relative="1" as="geometry" />
        </mxCell>
        <mxCell id="kIxCgRVE3hWU1zK3YjNe-51" value="LHG 110.5" style="text;whiteSpace=wrap;html=1;fontSize=18;fontFamily=Helvetica;fontColor=#000000;" vertex="1" parent="1">
          <mxGeometry x="580" y="376.5" width="100" height="40" as="geometry" />
        </mxCell>
        <mxCell id="kIxCgRVE3hWU1zK3YjNe-52" value="LHG 110.6" style="text;whiteSpace=wrap;html=1;fontSize=18;fontFamily=Helvetica;fontColor=#000000;" vertex="1" parent="1">
          <mxGeometry x="590" y="435.25" width="100" height="40" as="geometry" />
        </mxCell>
        <mxCell id="kIxCgRVE3hWU1zK3YjNe-54" value="" style="shape=mxgraph.cisco.computers_and_peripherals.video_camera;sketch=0;html=1;pointerEvents=1;dashed=0;fillColor=#036897;strokeColor=#ffffff;strokeWidth=2;verticalLabelPosition=bottom;verticalAlign=top;align=center;outlineConnect=0;fontFamily=Helvetica;fontSize=11;fontColor=#000000;direction=north;" vertex="1" parent="1">
          <mxGeometry x="860" y="134.5" width="46.5" height="48.5" as="geometry" />
        </mxCell>
        <mxCell id="kIxCgRVE3hWU1zK3YjNe-75" style="edgeStyle=orthogonalEdgeStyle;rounded=0;orthogonalLoop=1;jettySize=auto;html=1;entryX=0.5;entryY=0;entryDx=0;entryDy=0;entryPerimeter=0;fontFamily=Helvetica;fontSize=18;fontColor=#000000;" edge="1" parent="1" source="kIxCgRVE3hWU1zK3YjNe-55" target="kIxCgRVE3hWU1zK3YjNe-36">
          <mxGeometry relative="1" as="geometry" />
        </mxCell>
        <mxCell id="kIxCgRVE3hWU1zK3YjNe-55" value="" style="shape=mxgraph.cisco.computers_and_peripherals.video_camera;sketch=0;html=1;pointerEvents=1;dashed=0;fillColor=#036897;strokeColor=#ffffff;strokeWidth=2;verticalLabelPosition=bottom;verticalAlign=top;align=center;outlineConnect=0;fontFamily=Helvetica;fontSize=11;fontColor=#000000;direction=north;" vertex="1" parent="1">
          <mxGeometry x="860" y="183" width="56.5" height="48.5" as="geometry" />
        </mxCell>
        <mxCell id="kIxCgRVE3hWU1zK3YjNe-56" value="" style="shape=mxgraph.cisco.computers_and_peripherals.video_camera;sketch=0;html=1;pointerEvents=1;dashed=0;fillColor=#036897;strokeColor=#ffffff;strokeWidth=2;verticalLabelPosition=bottom;verticalAlign=top;align=center;outlineConnect=0;fontFamily=Helvetica;fontSize=11;fontColor=#000000;direction=north;" vertex="1" parent="1">
          <mxGeometry x="860" y="226" width="46.5" height="48.5" as="geometry" />
        </mxCell>
        <mxCell id="kIxCgRVE3hWU1zK3YjNe-76" value="" style="edgeStyle=orthogonalEdgeStyle;rounded=0;orthogonalLoop=1;jettySize=auto;html=1;fontFamily=Helvetica;fontSize=18;fontColor=#000000;" edge="1" parent="1" source="kIxCgRVE3hWU1zK3YjNe-57">
          <mxGeometry relative="1" as="geometry">
            <mxPoint x="850" y="298.5" as="targetPoint" />
          </mxGeometry>
        </mxCell>
        <mxCell id="kIxCgRVE3hWU1zK3YjNe-78" style="edgeStyle=orthogonalEdgeStyle;rounded=0;orthogonalLoop=1;jettySize=auto;html=1;entryX=0.254;entryY=0.333;entryDx=0;entryDy=0;entryPerimeter=0;fontFamily=Helvetica;fontSize=18;fontColor=#000000;" edge="1" parent="1" source="kIxCgRVE3hWU1zK3YjNe-57" target="kIxCgRVE3hWU1zK3YjNe-37">
          <mxGeometry relative="1" as="geometry" />
        </mxCell>
        <mxCell id="kIxCgRVE3hWU1zK3YjNe-57" value="" style="shape=mxgraph.cisco.computers_and_peripherals.video_camera;sketch=0;html=1;pointerEvents=1;dashed=0;fillColor=#036897;strokeColor=#ffffff;strokeWidth=2;verticalLabelPosition=bottom;verticalAlign=top;align=center;outlineConnect=0;fontFamily=Helvetica;fontSize=11;fontColor=#000000;direction=north;" vertex="1" parent="1">
          <mxGeometry x="870" y="274.5" width="46.5" height="48.5" as="geometry" />
        </mxCell>
        <mxCell id="kIxCgRVE3hWU1zK3YjNe-77" style="edgeStyle=orthogonalEdgeStyle;rounded=0;orthogonalLoop=1;jettySize=auto;html=1;fontFamily=Helvetica;fontSize=18;fontColor=#000000;" edge="1" parent="1" source="kIxCgRVE3hWU1zK3YjNe-58" target="kIxCgRVE3hWU1zK3YjNe-37">
          <mxGeometry relative="1" as="geometry">
            <Array as="points">
              <mxPoint x="796" y="334.5" />
            </Array>
          </mxGeometry>
        </mxCell>
        <mxCell id="kIxCgRVE3hWU1zK3YjNe-58" value="" style="shape=mxgraph.cisco.computers_and_peripherals.video_camera;sketch=0;html=1;pointerEvents=1;dashed=0;fillColor=#036897;strokeColor=#ffffff;strokeWidth=2;verticalLabelPosition=bottom;verticalAlign=top;align=center;outlineConnect=0;fontFamily=Helvetica;fontSize=11;fontColor=#000000;direction=north;" vertex="1" parent="1">
          <mxGeometry x="870" y="334.25" width="46.5" height="48.5" as="geometry" />
        </mxCell>
        <mxCell id="kIxCgRVE3hWU1zK3YjNe-80" style="edgeStyle=orthogonalEdgeStyle;rounded=0;orthogonalLoop=1;jettySize=auto;html=1;fontFamily=Helvetica;fontSize=18;fontColor=#000000;" edge="1" parent="1" source="kIxCgRVE3hWU1zK3YjNe-59" target="kIxCgRVE3hWU1zK3YjNe-38">
          <mxGeometry relative="1" as="geometry" />
        </mxCell>
        <mxCell id="kIxCgRVE3hWU1zK3YjNe-59" value="" style="shape=mxgraph.cisco.computers_and_peripherals.video_camera;sketch=0;html=1;pointerEvents=1;dashed=0;fillColor=#036897;strokeColor=#ffffff;strokeWidth=2;verticalLabelPosition=bottom;verticalAlign=top;align=center;outlineConnect=0;fontFamily=Helvetica;fontSize=11;fontColor=#000000;direction=north;" vertex="1" parent="1">
          <mxGeometry x="870" y="390.25" width="46.5" height="48.5" as="geometry" />
        </mxCell>
        <mxCell id="kIxCgRVE3hWU1zK3YjNe-60" value="" style="shape=mxgraph.cisco.computers_and_peripherals.video_camera;sketch=0;html=1;pointerEvents=1;dashed=0;fillColor=#036897;strokeColor=#ffffff;strokeWidth=2;verticalLabelPosition=bottom;verticalAlign=top;align=center;outlineConnect=0;fontFamily=Helvetica;fontSize=11;fontColor=#000000;direction=north;" vertex="1" parent="1">
          <mxGeometry x="865" y="560" width="46.5" height="48.5" as="geometry" />
        </mxCell>
        <mxCell id="kIxCgRVE3hWU1zK3YjNe-81" style="edgeStyle=orthogonalEdgeStyle;rounded=0;orthogonalLoop=1;jettySize=auto;html=1;entryX=1;entryY=0.5;entryDx=0;entryDy=0;entryPerimeter=0;fontFamily=Helvetica;fontSize=18;fontColor=#000000;" edge="1" parent="1" source="kIxCgRVE3hWU1zK3YjNe-61" target="kIxCgRVE3hWU1zK3YjNe-39">
          <mxGeometry relative="1" as="geometry" />
        </mxCell>
        <mxCell id="kIxCgRVE3hWU1zK3YjNe-61" value="" style="shape=mxgraph.cisco.computers_and_peripherals.video_camera;sketch=0;html=1;pointerEvents=1;dashed=0;fillColor=#036897;strokeColor=#ffffff;strokeWidth=2;verticalLabelPosition=bottom;verticalAlign=top;align=center;outlineConnect=0;fontFamily=Helvetica;fontSize=11;fontColor=#000000;direction=north;" vertex="1" parent="1">
          <mxGeometry x="870" y="431" width="46.5" height="48.5" as="geometry" />
        </mxCell>
        <mxCell id="kIxCgRVE3hWU1zK3YjNe-63" value="Ip cam110.18" style="text;html=1;align=center;verticalAlign=middle;resizable=0;points=[];autosize=1;strokeColor=none;fillColor=none;fontSize=18;fontFamily=Helvetica;fontColor=#000000;" vertex="1" parent="1">
          <mxGeometry x="923.5" y="567" width="120" height="30" as="geometry" />
        </mxCell>
        <mxCell id="kIxCgRVE3hWU1zK3YjNe-64" value="Ip cam110.11" style="text;html=1;align=center;verticalAlign=middle;resizable=0;points=[];autosize=1;strokeColor=none;fillColor=none;fontSize=18;fontFamily=Helvetica;fontColor=#000000;" vertex="1" parent="1">
          <mxGeometry x="916.5" y="143.75" width="120" height="30" as="geometry" />
        </mxCell>
        <mxCell id="kIxCgRVE3hWU1zK3YjNe-65" value="Ip cam110.12" style="text;html=1;align=center;verticalAlign=middle;resizable=0;points=[];autosize=1;strokeColor=none;fillColor=none;fontSize=18;fontFamily=Helvetica;fontColor=#000000;" vertex="1" parent="1">
          <mxGeometry x="916.5" y="196" width="120" height="30" as="geometry" />
        </mxCell>
        <mxCell id="kIxCgRVE3hWU1zK3YjNe-66" value="Ip cam110.13" style="text;html=1;align=center;verticalAlign=middle;resizable=0;points=[];autosize=1;strokeColor=none;fillColor=none;fontSize=18;fontFamily=Helvetica;fontColor=#000000;" vertex="1" parent="1">
          <mxGeometry x="916.5" y="238.5" width="120" height="30" as="geometry" />
        </mxCell>
        <mxCell id="kIxCgRVE3hWU1zK3YjNe-67" value="Ip cam110.14" style="text;html=1;align=center;verticalAlign=middle;resizable=0;points=[];autosize=1;strokeColor=none;fillColor=none;fontSize=18;fontFamily=Helvetica;fontColor=#000000;" vertex="1" parent="1">
          <mxGeometry x="916.5" y="283.75" width="120" height="30" as="geometry" />
        </mxCell>
        <mxCell id="kIxCgRVE3hWU1zK3YjNe-68" value="Ip cam110.15" style="text;html=1;align=center;verticalAlign=middle;resizable=0;points=[];autosize=1;strokeColor=none;fillColor=none;fontSize=18;fontFamily=Helvetica;fontColor=#000000;" vertex="1" parent="1">
          <mxGeometry x="916.5" y="346.5" width="120" height="30" as="geometry" />
        </mxCell>
        <mxCell id="kIxCgRVE3hWU1zK3YjNe-71" value="Ip cam110.16" style="text;html=1;align=center;verticalAlign=middle;resizable=0;points=[];autosize=1;strokeColor=none;fillColor=none;fontSize=18;fontFamily=Helvetica;fontColor=#000000;" vertex="1" parent="1">
          <mxGeometry x="916.5" y="401.25" width="120" height="30" as="geometry" />
        </mxCell>
        <mxCell id="kIxCgRVE3hWU1zK3YjNe-72" value="Ip cam110.17" style="text;html=1;align=center;verticalAlign=middle;resizable=0;points=[];autosize=1;strokeColor=none;fillColor=none;fontSize=18;fontFamily=Helvetica;fontColor=#000000;" vertex="1" parent="1">
          <mxGeometry x="916.5" y="440.25" width="120" height="30" as="geometry" />
        </mxCell>
      </root>
    </mxGraphModel>
  </diagram>
</mxfile>
